<?xml version="1.0"?>
<svg xmlns="http://www.w3.org/2000/svg" height="512px" viewBox="0 0 128 128" width="512px"><g><path d="m101.96 12h-1.08a13.765 13.765 0 0 0 -13.63-12h-47a13.765 13.765 0 0 0 -13.63 12h-.58a6.126 6.126 0 0 0 -6.12 6.12v.26a6.126 6.126 0 0 0 6.12 6.12h.46v6.89a69.356 69.356 0 0 0 21.15 49.75l-3.59 7.95a67.923 67.923 0 0 0 -6.01 26.41h-2.4a3.483 3.483 0 0 0 -3.48 3.48v5.54a3.483 3.483 0 0 0 3.48 3.48h56.7a3.483 3.483 0 0 0 3.48-3.48v-5.54a3.483 3.483 0 0 0 -3.48-3.48h-2.9a67.963 67.963 0 0 0 -6.01-26.41l-3.59-7.95a69.356 69.356 0 0 0 21.15-49.75v-6.89h.96a6.126 6.126 0 0 0 6.12-6.12v-.26a6.126 6.126 0 0 0 -6.12-6.12zm-75.46 9h-.46a2.623 2.623 0 0 1 -2.62-2.62v-.26a2.623 2.623 0 0 1 2.62-2.62h.46zm13.75-17.5h47a10.261 10.261 0 0 1 10.1 8.5h-67.2a10.261 10.261 0 0 1 10.1-8.5zm45.75 21v6.89a65.891 65.891 0 0 1 -20.46 47.61h-.04v-54.5zm-20.5-3.5v-5.5h8.5v5.5zm12 0v-5.5h8.5v5.5zm-15.5 3.5v54.5h-.04a65.891 65.891 0 0 1 -20.46-47.61v-6.89zm-20.5-3.5v-5.5h8.5v5.5zm12 0v-5.5h8.5v5.5zm-23.5-5.5h8v5.5h-8zm0 15.89v-6.89h8v6.89a69.39 69.39 0 0 0 19.02 47.61h-6.58a65.889 65.889 0 0 1 -20.44-47.61zm62.33 87.59.02 5.52-56.68.02-.02-5.52zm-6.35-3.48h-44.46a64.888 64.888 0 0 1 1.18-10.63 11.023 11.023 0 0 0 4.87-2.16 7.45 7.45 0 0 1 9.45 0 10.944 10.944 0 0 0 13.45 0 7.061 7.061 0 0 1 4.71-1.69 7.145 7.145 0 0 1 4.74 1.69 10.9 10.9 0 0 0 4.88 2.16 64.888 64.888 0 0 1 1.18 10.63zm-4.57-22.21a65.334 65.334 0 0 1 2.52 7.74 10.168 10.168 0 0 1 -2.01-1.2 10.94 10.94 0 0 0 -13.46.01 7.47 7.47 0 0 1 -9.44 0 10.926 10.926 0 0 0 -13.45-.01 10.867 10.867 0 0 1 -2 1.19c1.68-6.47 4.57-12.45 7.31-18.52h25.74c1.62 3.58 3.34 7.14 4.79 10.79zm16.09-61.9a65.889 65.889 0 0 1 -20.44 47.61h-6.58a69.39 69.39 0 0 0 19.02-47.61v-6.89h8zm0-10.39h-8v-5.5h8zm7.08-2.62a2.623 2.623 0 0 1 -2.62 2.62h-.96v-5.5h.96a2.623 2.623 0 0 1 2.62 2.62z" data-original="#000000" class="active-path" data-old_color="#000000" fill="#FDB104"/></g> </svg>
