<svg height="512" viewBox="0 0 128 128" width="512" xmlns="http://www.w3.org/2000/svg"><g><g><path d="m57.058 84.667h13.885v26.334h-13.885z" fill="#6367c5"/><path d="m106.61 11.8-97.3 51.5-2.81-5.3 97.31-51.5z" fill="#7075e0"/><path d="m6.5 58h115v28.5h-115z" fill="#de6246"/><path d="m13.763 86.5h6v35h-6z" fill="#7075e0"/><path d="m108.237 86.5h6v35h-6z" fill="#7075e0" transform="matrix(-1 0 0 -1 222.474 208)"/><path d="m10.763 85.499h12v13.833h-12z" fill="#6367c5"/><path d="m105.237 85.499h12v13.833h-12z" fill="#6367c5"/><path d="m6.5 79.625h115v11.375h-115z" fill="#de6246"/><path d="m6.5 76h9.583v6h-9.583z" fill="#f6e27d"/><path d="m16.083 76h9.583v6h-9.583z" fill="#dbca70"/><path d="m25.667 76h9.583v6h-9.583z" fill="#f6e27d"/><path d="m35.25 76h9.583v6h-9.583z" fill="#dbca70"/><path d="m44.833 76h9.583v6h-9.583z" fill="#f6e27d"/><path d="m54.417 76h9.583v6h-9.583z" fill="#dbca70"/><path d="m64 76h9.583v6h-9.583z" fill="#f6e27d"/><path d="m73.583 76h9.583v6h-9.583z" fill="#dbca70"/><path d="m83.167 76h9.583v6h-9.583z" fill="#f6e27d"/><path d="m92.75 76h9.583v6h-9.583z" fill="#dbca70"/><path d="m102.333 76h9.583v6h-9.583z" fill="#f6e27d"/><path d="m111.917 76h9.583v6h-9.583z" fill="#dbca70"/><path d="m52.557 108.689h22.885v6h-22.885z" fill="#7075e0"/></g><g fill="#112249"><path d="m48.758 37.387a1.742 1.742 0 0 0 .816-.2l4.447-2.353a1.75 1.75 0 0 0 -1.637-3.094l-4.447 2.35a1.75 1.75 0 0 0 .821 3.3z"/><path d="m121.5 56.25h-13.96l-16.187-34.395 16.076-8.508a1.75 1.75 0 0 0 .728-2.365l-2.8-5.3a1.75 1.75 0 0 0 -2.365-.729l-43.637 23.094a1.75 1.75 0 0 0 1.637 3.094l42.088-22.275 1.166 2.205-85.36 45.179h-5.338l29.306-15.51a1.75 1.75 0 0 0 -1.637-3.094l-35.627 18.859h.01a1.743 1.743 0 0 0 -.85 1.495v33a1.75 1.75 0 0 0 1.75 1.75h2.51v6.58a1.75 1.75 0 0 0 1.75 1.75h1.25v20.42a1.75 1.75 0 0 0 1.75 1.75h6a1.75 1.75 0 0 0 1.75-1.75v-20.42h1.25a1.75 1.75 0 0 0 1.75-1.75v-6.58h30.8v14.188h-2.75a1.75 1.75 0 0 0 -1.75 1.75v6a1.749 1.749 0 0 0 1.75 1.75h22.882a1.749 1.749 0 0 0 1.75-1.75v-6a1.75 1.75 0 0 0 -1.75-1.75h-2.75v-8.021a1.75 1.75 0 0 0 -3.5 0v8.021h-10.384v-14.188h44.682v6.58a1.75 1.75 0 0 0 1.75 1.75h1.25v20.42a1.75 1.75 0 0 0 1.75 1.75h6a1.75 1.75 0 0 0 1.75-1.75v-20.42h1.25a1.75 1.75 0 0 0 1.75-1.75v-6.58h2.51a1.75 1.75 0 0 0 1.75-1.75v-33a1.75 1.75 0 0 0 -1.75-1.75zm-47.808 56.688h-19.384v-2.5h19.384zm30.391-32.688v-2.5h6.084v2.5zm-9.583 0v-2.5h6.083v2.5zm-9.583 0v-2.5h6.083v2.5zm-9.584 0v-2.5h6.084v2.5zm-9.583 0v-2.5h6.083v2.5zm-9.583 0v-2.5h6.083v2.5zm-9.584 0v-2.5h6.084v2.5zm-9.583 0v-2.5h6.083v2.5zm-9.583 0v-2.5h6.083v2.5zm-9.584 0v-2.5h6.084v2.5zm-9.583 0v-2.5h6.083v2.5zm105.417-2.5h6.083v2.5h-6.083zm-94.348-18h65.014a1.75 1.75 0 0 0 0-3.5h-57.965l61.889-32.756 15.415 32.756h-10.922a1.75 1.75 0 0 0 0 3.5h27v14.5h-111.5v-14.5zm-1.309 60h-2.5v-18.67h2.5zm3-22.17h-8.5v-4.83h8.5zm91.48 22.17h-2.5v-18.67h2.5zm3-22.17h-8.5v-4.83h8.5zm4.26-8.33h-111.5v-5.5h111.5z"/><path d="m44.1 68.75h39.8a1.75 1.75 0 0 0 0-3.5h-39.8a1.75 1.75 0 0 0 0 3.5z"/></g></g></svg>