<svg id="Capa_1" enable-background="new 0 0 512 512" height="512" viewBox="0 0 512 512" width="512" xmlns="http://www.w3.org/2000/svg"><g><g><g><path d="m256 352-10.667 32 10.667 32 120.133-21-7.143-30z" fill="#b27a49"/><path d="m135.867 395 120.133 21v-64l-112.99 13z" fill="#c48958"/></g><g><path d="m368.99 365-24.127-101.333h-88.863l-10.667 66.999 10.667 34.334z" fill="#744727"/><path d="m143.01 365h112.99v-101.333h-88.863z" fill="#8d562f"/></g><g><path d="m256 512h132.334v-15c0-33.681-3.956-67.373-11.758-100.142l-.443-1.858h-120.133l-10.667 63.667z" fill="#744727"/><path d="m135.867 395-.443 1.859c-7.802 32.768-11.758 66.461-11.758 100.142v15h132.334v-117.001z" fill="#8d562f"/></g><path d="m332 423.333h30v30h-30z" fill="#dc4b4b"/><path d="m271.332 423.333h30v30h-30z" fill="#dc4b4b"/><g fill="#e07037"><path d="m210.667 423.333h30v30h-30z"/><path d="m150.001 423.333h30v30h-30z"/></g></g><g><g><path d="m256 292.333h56.488c18.068 0 34.819-6.351 47.895-17.186l21.989-30.549c1.249-3.224 2.29-6.567 3.105-10.016l34.836-147.415-164.313-12.501-10.667 117.333z" fill="#dc4b4b"/><path d="m91.924 87.166 34.635 147.33c.817 3.475 1.863 6.843 3.12 10.09l21.957 30.535c13.079 10.851 29.842 17.211 47.932 17.211h56.432v-217.666z" fill="#e07037"/></g><g><path d="m256 233.447 47.038-152.546h28.66l50.613 163.673c-4.692 12.119-12.325 22.543-21.958 30.536l-42.985-139.013-48.137 156.237h-13.231l-10.667-25.666z" fill="#fdae02"/><path d="m256 233.447-47.038-152.546h-28.66l-50.613 163.673c4.692 12.119 12.325 22.543 21.958 30.536l42.985-139.013 48.137 156.237h13.231z" fill="#fdcb02"/></g><g><path d="m256 0-10.667 32 10.667 32 164.333-6.833v-57.167z" fill="#fdc673"/><path d="m91.666 57.167 164.334 6.833v-64h-164.334z" fill="#ffdf8e"/></g><g><path d="m256 87.166h164.313l.02-.085v-29.914h-164.333l-10.667 17.499z" fill="#744727"/><path d="m91.666 86.073.258 1.093h164.076v-29.999h-164.334z" fill="#8d562f"/></g></g></g></svg>