<?xml version="1.0" encoding="iso-8859-1"?>
<!-- Generator: Adobe Illustrator 19.0.0, SVG Export Plug-In . SVG Version: 6.00 Build 0)  -->
<svg version="1.1" id="Capa_1" xmlns="http://www.w3.org/2000/svg" xmlns:xlink="http://www.w3.org/1999/xlink" x="0px" y="0px"
	 viewBox="0 0 512.002 512.002" style="enable-background:new 0 0 512.002 512.002;" xml:space="preserve">
<g>
	<path style="fill:#805142;" d="M465.33,152.665c5.727,5.727,5.728,15.486,0,21.214c-5.939,5.939-15.488,5.727-21.214,0
		L338.259,68.021c-5.94-5.94-5.939-15.275,0-21.214c5.728-5.728,15.274-5.94,21.214,0L465.33,152.665z"/>
	<path style="fill:#805142;" d="M507.547,110.449c5.939,5.939,5.94,15.274,0,21.214c-5.727,5.727-15.275,5.939-21.214,0
		L380.262,25.593c-5.728-5.728-5.727-15.488,0-21.214c5.94-5.94,15.486-5.728,21.214,0L507.547,110.449z"/>
</g>
<g>
	<path style="fill:#FFA426;" d="M372.656,224.126c-13.153,13.153-31.185,19.304-49.428,17.182l-52.61-52.61
		c-1.911-18.456,4.242-36.487,17.182-49.428c14.85-14.851,35.427-20.578,55.156-16.123l46.034,46.034
		C393.233,189.122,387.082,209.699,372.656,224.126z"/>
	<path style="fill:#FFA426;" d="M255.978,468.087c-29.063,29.063-67.461,43.701-105.858,43.912
		c-33.517,0-67.036-11.455-94.826-33.729h-0.425l0.212-21.427v-0.849l-21.427,1.062c-47.944-58.975-44.762-146.165,10.182-201.109
		c57.066-57.066,162.075-75.099,220.202-32.245l11.456,12.727l19.515,21.214C329.167,317.254,310.075,413.991,255.978,468.087z"/>
</g>
<path style="fill:#FF873C;" d="M372.656,224.126c-13.153,13.153-31.185,19.304-49.428,17.182l-26.305-26.305l68.945-68.945
	l23.123,23.123C393.233,189.122,387.082,209.699,372.656,224.126z"/>
<g>
	<path style="fill:#5E382C;" d="M465.33,152.665c5.727,5.727,5.728,15.486,0,21.214c-5.939,5.939-15.488,5.727-21.214,0
		l-53.035-53.035l21.214-21.214L465.33,152.665z"/>
	<path style="fill:#5E382C;" d="M433.297,78.628l21.214-21.214l53.035,53.035c5.939,5.939,5.94,15.274,0,21.214
		c-5.727,5.727-15.275,5.939-21.214,0L433.297,78.628z"/>
</g>
<path style="fill:#FF873C;" d="M255.978,468.087c-29.063,29.063-67.461,43.701-105.858,43.912
	c-33.517,0-67.036-11.455-94.826-33.729h-0.425l0.212-21.427l220.414-220.415l19.515,21.214
	C329.167,317.254,310.075,413.991,255.978,468.087z"/>
<path style="fill:#704639;" d="M422.903,131.451l60.247-47.519c15.275-10.608,16.973-32.245,3.82-45.399l-13.578-13.578
	c-12.941-12.941-34.58-11.667-45.399,3.82l-47.307,60.459L144.605,304.95c-6.364,5.517-6.576,15.488-0.425,21.639l41.368,41.368
	c5.94,5.94,15.911,5.728,21.639-0.425L422.903,131.451z"/>
<path style="fill:#5E382C;" d="M207.186,367.532c-5.728,6.153-15.699,6.365-21.639,0.425l-20.79-20.79L480.18,31.745l6.788,6.788
	c13.153,13.153,11.455,34.79-3.82,45.399l-60.247,47.519L207.186,367.532z"/>
<path style="fill:#FFDA45;" d="M55.294,478.27h-0.425c-3.82-3.395-7.425-6.576-11.031-10.182
	c-3.607-3.607-6.788-7.213-10.182-11.031l73.825-73.825l21.214,21.214L55.294,478.27z"/>
<path style="fill:#FFBC36;" d="M55.294,478.27h-0.425c-3.82-3.395-7.425-6.576-11.031-10.182l74.249-74.249l10.607,10.607
	L55.294,478.27z"/>
<path style="fill:#704639;" d="M160.516,436.266c-5.727,5.727-15.275,5.939-21.214,0l-63.642-63.643
	c-5.728-5.728-5.727-15.488,0-21.214c5.94-5.94,15.486-5.728,21.214,0l63.642,63.643
	C166.455,420.991,166.456,430.326,160.516,436.266z"/>
<path style="fill:#5E382C;" d="M160.516,436.266c-5.727,5.727-15.275,5.939-21.214,0l-31.821-31.821l21.214-21.214l31.821,31.821
	C166.455,420.991,166.456,430.326,160.516,436.266z"/>
<g>
</g>
<g>
</g>
<g>
</g>
<g>
</g>
<g>
</g>
<g>
</g>
<g>
</g>
<g>
</g>
<g>
</g>
<g>
</g>
<g>
</g>
<g>
</g>
<g>
</g>
<g>
</g>
<g>
</g>
</svg>
