<svg id="_x33_0" enable-background="new 0 0 64 64" height="512" viewBox="0 0 64 64" width="512" xmlns="http://www.w3.org/2000/svg"><g><g><g><path d="m42 14v2c0 1.1-.9 2-2 2-.55 0-1.05-.22-1.41-.59-.37-.36-.59-.86-.59-1.41s.22-1.05.59-1.41c.36-.37.86-.59 1.41-.59z" fill="#ff826e"/></g><g><path d="m34 12v2c0 .55-.22 1.05-.59 1.41-.36.37-.86.59-1.41.59s-1.05-.22-1.41-.59c-.37-.36-.59-.86-.59-1.41 0-1.1.9-2 2-2z" fill="#ff826e"/></g><g><path d="m51 52c-.55 0-1-.45-1-1v-.4l-4.13-.41c-1.25-.13-2.5-.19-3.75-.19-4.05 0-8.08.65-11.93 1.94l-.19.06-.19-.06c-3.85-1.29-7.88-1.94-11.93-1.94-1.25 0-2.5.06-3.75.19l-8.13.81v-13.487c-.547.301-1.166.487-1.834.487h-.166c-1.105 0-2-.895-2-2v19c0 .55.45 1 1 1h23c0 2.21 1.79 4 4 4s4-1.79 4-4h18.33l.67-4z" fill="#b4dd7f"/></g><g><path d="m40 18h-1c-3.25 0-6.4 1.05-9 3-1.3-.98-2.74-1.72-4.26-2.23s-3.12-.77-4.74-.77h-13l-1.378.151-.873.349c-2.265.906-3.749 3.099-3.749 5.537 0 3.188 2.503 5.784 5.651 5.947l.001.008.334 3.842c.009.111.014.221.014.332 0 1.449-.814 2.695-2 3.347v13.487l8.13-.81c1.25-.13 2.5-.19 3.75-.19 4.05 0 8.08.65 11.93 1.94l.19.06.19-.06c3.85-1.29 7.88-1.94 11.93-1.94 1.25 0 2.5.06 3.75.19l4.13.41 2 .4v-33z" fill="#e6e9ed"/></g><g><path d="m62 6.47v4.53c0 .55-.45 1-1 1h-1-8-1c-.55 0-1-.45-1-1v-4.53c0-.31.07-.61.21-.89l1.24-2.47c.34-.68 1.03-1.11 1.79-1.11h5.52c.76 0 1.45.43 1.79 1.11l1.24 2.47c.14.28.21.58.21.89z" fill="#ecc19c"/></g><g><path d="m52 12h8v4h-8z" fill="#dfb28b"/></g><g><path d="m60 16v6h-8v-4-2z" fill="#dfb28b"/></g><g><path d="m52 26h8v20h-8z" fill="#dfb28b"/></g><g><path d="m59 52 1 6h-8l.33-2 .67-4z" fill="#dfb28b"/></g><g><path d="m62 59v2c0 .55-.45 1-1 1h-10c-.55 0-1-.45-1-1v-2c0-.55.45-1 1-1h1 8 1c.55 0 1 .45 1 1z" fill="#cf9e76"/></g><g><path d="m62 47v4c0 .55-.45 1-1 1h-2-6-2c-.55 0-1-.45-1-1v-.4-3.6c0-.55.45-1 1-1h1 8 1c.55 0 1 .45 1 1z" fill="#cf9e76"/></g><g><path d="m62 23v2c0 .55-.45 1-1 1h-1-8-1c-.55 0-1-.45-1-1v-2c0-.55.45-1 1-1h1 8 1c.55 0 1 .45 1 1z" fill="#cf9e76"/></g></g><g><circle cx="56" cy="30" r="1"/><circle cx="56" cy="36" r="1"/><circle cx="56" cy="42" r="1"/><path d="m63 11v-4.528c0-.463-.109-.927-.316-1.342l-1.236-2.472c-.512-1.023-1.541-1.658-2.684-1.658h-5.527c-1.144 0-2.172.635-2.684 1.658l-1.236 2.473c-.208.414-.317.878-.317 1.341v4.528c0 1.103.897 2 2 2v4h-8.184c.112-.314.184-.648.184-1v-11.883l-10-1.25v8.133h-1c-1.654 0-3 1.346-3 3s1.346 3 3 3 3-1.346 3-3v-4.867l6 .75v3.117h-1c-1.654 0-3 1.346-3 3 0 .394.081.768.219 1.112-2.575.293-5.072 1.202-7.219 2.66-2.64-1.792-5.807-2.772-9-2.772h-10.55c1.594-1.544 2.55-3.675 2.55-6 0-2.206-1.794-4-4-4h-.125c-2.137 0-3.875 1.738-3.875 3.875 0 .111.005.221.015.336l.547 6.287-.185.074c-2.659 1.064-4.377 3.601-4.377 6.465 0 3.407 2.462 6.245 5.725 6.842l.264 3.043c.007.081.011.163.011.244 0 1.563-1.271 2.834-2.834 2.834h-.166c-.552 0-1-.448-1-1s.448-1 1-1h1v-2h-1c-1.654 0-3 1.346-3 3v19c0 1.103.897 2 2 2h22.101c.465 2.279 2.484 4 4.899 4s4.435-1.721 4.899-4h16.101c-1.103 0-2 .897-2 2v2c0 1.103.897 2 2 2h10c1.103 0 2-.897 2-2v-2c0-1.103-.897-2-2-2h-.153l-.667-4h.82c1.103 0 2-.897 2-2v-4c0-1.103-.897-2-2-2v-18c1.103 0 2-.897 2-2v-2c0-1.103-.897-2-2-2v-8c1.103 0 2-.897 2-2zm-30 3c0 .551-.448 1-1 1s-1-.449-1-1 .448-1 1-1h1zm18-7.528c0-.154.036-.31.105-.447l1.236-2.472c.172-.341.514-.553.895-.553h5.527c.381 0 .724.212.895.553l1.236 2.472c.07.138.106.293.106.447l.001 4.528h-10.001zm0 14.528c-1.103 0-2 .897-2 2v2c0 1.103.897 2 2 2v18c-1.103 0-2 .897-2 2v2.495l-3.029-.302c-5.025-.505-10.13.002-14.971 1.453v-29.121c2.336-1.625 5.153-2.525 8-2.525h12zm-16-13.883v-1.984l6 .75v1.984zm5 7.883h1v1c0 .551-.448 1-1 1s-1-.449-1-1 .448-1 1-1zm-31.125-6h.125c1.103 0 2 .897 2 2 0 2.437-1.356 4.616-3.501 5.697l-.491-5.654c-.005-.056-.008-.112-.008-.168 0-1.034.841-1.875 1.875-1.875zm.125 25.166c0-.14-.006-.28-.019-.419l-.245-2.821c2.406-.36 4.264-2.421 4.264-4.926 0-2.757-2.243-5-5-5-1.654 0-3 1.346-3 3s1.346 3 3 3h1v-2h-1c-.552 0-1-.449-1-1s.448-1 1-1c1.654 0 3 1.346 3 3s-1.346 3-3.037 3c-2.736 0-4.963-2.227-4.963-4.963 0-2.041 1.225-3.85 3.119-4.608l1.073-.429h13.808c2.847 0 5.664.9 8 2.525v29.121c-4.841-1.452-9.945-1.958-14.971-1.453l-7.029.703v-11.833c1.206-.88 2-2.293 2-3.897zm24 20.834v1c0 1.654-1.346 3-3 3s-3-1.346-3-3v-1h-24v-16.184c.314.112.648.184 1 .184h.166c.286 0 .562-.037.834-.084v13.189l9.229-.922c5.133-.514 10.357.066 15.263 1.702l.508.169.511-.17c4.903-1.635 10.129-2.217 15.261-1.701l3.303.33c.228.853 1.001 1.487 1.925 1.487h.82l-.333 2zm28.002 6h-10.002v-2h10zm-2.182-4h-5.64l.667-4h4.306zm2.182-6h-10.002v-4h10zm-2.002-6h-6v-18h6zm2.001-20h-10.001v-2h10zm-8.001-4v-4h6v4zm6-6h-6v-2h6z"/><path d="m16 47c1.654 0 3-1.346 3-3v-5h6v-2h-6v-2h6v-2h-8v11c0 .552-.448 1-1 1s-1-.448-1-1 .448-1 1-1v-2c-1.654 0-3 1.346-3 3s1.346 3 3 3z"/><path d="m15 25h4v2h-4z"/><path d="m21 25h6v2h-6z"/><path d="m15 29h12v2h-12z"/><path d="m15 21h6v2h-6z"/><path d="m33 45h14v2h-14z"/><path d="m45 41h2v2h-2z"/><path d="m33 41h10v2h-10z"/><path d="m33 37h14v2h-14z"/><path d="m45 29h2v2h-2z"/><path d="m33 29h10v2h-10z"/><path d="m33 25h14v2h-14z"/><path d="m39 21h8v2h-8z"/></g></g></svg>